<?xml version="1.0" encoding="UTF-8" standalone="no"?>
<!-- Created with Inkscape (http://www.inkscape.org/) -->

<svg
   width="48"
   height="48"
   viewBox="0 0 12.7 12.7"
   version="1.1"
   id="svg5"
   inkscape:version="1.1 (c4e8f9e, 2021-05-24)"
   sodipodi:docname="books.svg"
   xmlns:inkscape="http://www.inkscape.org/namespaces/inkscape"
   xmlns:sodipodi="http://sodipodi.sourceforge.net/DTD/sodipodi-0.dtd"
   xmlns="http://www.w3.org/2000/svg"
   xmlns:svg="http://www.w3.org/2000/svg">
  <sodipodi:namedview
     id="namedview7"
     pagecolor="#ffffff"
     bordercolor="#111111"
     borderopacity="1"
     inkscape:pageshadow="0"
     inkscape:pageopacity="0"
     inkscape:pagecheckerboard="1"
     inkscape:document-units="mm"
     showgrid="false"
     inkscape:zoom="3.3260208"
     inkscape:cx="-44.948607"
     inkscape:cy="-20.144192"
     inkscape:window-width="1920"
     inkscape:window-height="1039"
     inkscape:window-x="1920"
     inkscape:window-y="0"
     inkscape:window-maximized="1"
     inkscape:current-layer="layer1"
     units="px" />
  <defs
     id="defs2" />
  <g
     inkscape:label="Layer 1"
     inkscape:groupmode="layer"
     id="layer1">
    <path
       d="M 11.927301,10.51305 H 11.611013 C 11.39158,9.9916797 11.391484,9.4829551 11.610743,8.9641997 h 0.316527 c 0.352763,0 0.639751,-0.2869859 0.639751,-0.6397728 0,-0.3527633 -0.286988,-0.6397745 -0.639751,-0.6397745 H 10.654489 C 10.816496,7.499583 10.914982,7.2576168 10.914982,6.9928991 V 4.9883855 c 0,-0.5799246 -0.471767,-1.0517169 -1.0516666,-1.0517169 H 9.3457588 c 0.043915,-0.087543 0.068778,-0.1862449 0.068778,-0.2906817 0,-0.3591706 -0.2918585,-0.6513882 -0.6506218,-0.6513882 H 8.5858772 C 8.4269889,2.6018306 8.4268933,2.218206 8.5856064,1.8279582 h 0.1783014 c 0.3587631,0 0.6506218,-0.2922179 0.6506218,-0.6513892 0,-0.35876284 -0.2918587,-0.65064504 -0.6506218,-0.65064504 H 2.692499 c -1.0397647,0 -1.88567782,0.84560144 -1.88567782,1.88498274 0,0.502652 0.19644362,0.9759081 0.55309502,1.3325835 0.070911,0.070911 0.1466014,0.1352018 0.2260331,0.193155 H 1.4465711 c -0.3527634,0 -0.63974992,0.286986 -0.63974992,0.6397746 0,0.3527867 0.28698652,0.6397745 0.63974992,0.6397745 H 1.7630988 C 1.9823879,5.734901 1.982316,6.2436489 1.7628645,6.7650184 h -0.316288 c -0.3527635,0 -0.63974993,0.2869878 -0.63974993,0.6397746 0,0.134962 0.0421127,0.2602051 0.11372471,0.3635152 C 0.54455329,7.9287315 0.28031674,8.3022289 0.28031674,8.7363675 v 2.0045405 c 0,0.579923 0.47145598,1.051692 1.05094796,1.051692 H 11.927277 c 0.352765,0 0.639752,-0.286987 0.639752,-0.639775 2.4e-5,-0.352764 -0.286963,-0.639775 -0.639728,-0.639775 z m 0,-2.4684338 c 0.154281,0 0.279786,0.1255298 0.279786,0.2798107 0,0.1542791 -0.125505,0.2798107 -0.279786,0.2798107 H 8.6790678 c -0.09942,0 -0.1799811,0.080584 -0.1799811,0.1799819 0,0.099398 0.08056,0.1799802 0.1799811,0.1799802 h 2.5456092 c -0.07034,0.1975485 -0.11334,0.3958649 -0.129587,0.5944445 0,0 -0.0719,0.3562428 0.129972,0.9544058 H 1.6119379 c -0.028219,0 -0.052074,-0.02386 -0.052074,-0.05209 V 9.0162992 c 0,-0.028222 0.023855,-0.052074 0.052074,-0.052074 h 1.7830417 l 1.171e-4,0.5911057 c -0.011348,0.1769587 0.075059,0.2466969 0.128123,0.272614 0.053783,0.026299 0.1642631,0.051763 0.3002091,-0.072499 9.381e-4,-9.013e-4 0.00183,-0.0018 0.00279,-0.0026 L 4.3293071,9.273014 4.8323912,9.7528449 c 9.197e-4,9.015e-4 0.00183,0.0018 0.00279,0.0026 0.079573,0.072739 0.1504173,0.094215 0.2063554,0.094215 0.039953,0 0.072308,-0.01096 0.094767,-0.022028 0.053127,-0.026159 0.1394254,-0.09623 0.1272107,-0.2727815 l 2.708e-4,-0.5906263 h 2.5291542 c 0.09942,0 0.1799811,-0.080584 0.1799811,-0.1799819 0,-0.099398 -0.08056,-0.1799819 -0.1799811,-0.1799819 H 5.2639165 L 5.2641872,8.044639 H 11.927395 Z M 2.2788778,5.8106857 C 2.2626517,5.612106 2.218809,5.413813 2.148523,5.2162411 h 7.4349161 c 0.028245,0 0.052098,0.023854 0.052098,0.052076 v 1.4446505 c 0,0.028222 -0.023853,0.052074 -0.052098,0.052074 H 5.2646268 l 2.707e-4,-0.5944407 h 1.2596063 c 0.09942,0 0.179982,-0.080584 0.179982,-0.1799819 0,-0.099399 -0.08056,-0.1799819 -0.179982,-0.1799819 h -4.245626 z m 1.115645,0.9543814 H 2.1481158 C 2.2183502,6.5672302 2.2622713,6.368939 2.2786855,6.1706242 h 1.115718 z M 4.9049044,6.1706477 4.9036149,9.3233486 4.4534924,8.8940324 c -0.069526,-0.066329 -0.178901,-0.066329 -0.2484466,0 L 3.7549965,9.3232998 3.7543474,6.1706242 H 4.9049055 Z M 1.1667845,2.4109302 c 0,-0.8408969 0.684433,-1.52501944 1.5257145,-1.52501944 h 6.0714486 c 0.1602787,0 0.2906583,0.13040324 0.2906583,0.29068194 0,0.160688 -0.1304031,0.2914267 -0.2906583,0.2914267 H 5.4460961 c -0.099398,0 -0.179981,0.080583 -0.179981,0.1799809 0,0.099399 0.080583,0.1799818 0.179981,0.1799818 h 2.756045 C 8.075098,2.2151584 8.0752657,2.6057659 8.2025914,2.9946224 H 2.692499 c -0.1547833,0 -0.3013363,-0.060978 -0.4119651,-0.1710547 C 2.1698093,2.712267 2.1088313,2.5657387 2.1088313,2.4109302 c 0,-0.3214466 0.261837,-0.5829481 0.5836677,-0.5829481 h 1.8674164 c 0.099398,0 0.179981,-0.080584 0.179981,-0.1799818 0,-0.099398 -0.080583,-0.1799809 -0.179981,-0.1799809 H 2.692499 c -0.5203138,0 -0.9436309,0.4229805 -0.9436309,0.9429108 0,0.2506059 0.098194,0.4873175 0.277124,0.6671555 0.1792138,0.1783029 0.4159015,0.2765002 0.6665069,0.2765002 h 6.0714486 c 0.1602787,0 0.2906583,0.1307382 0.2906583,0.2914245 0,0.1602808 -0.1304031,0.2906835 -0.2906583,0.2906835 H 2.692499 c -0.4064933,0 -0.7893505,-0.1589845 -1.0780411,-0.4476994 C 1.3257681,3.200305 1.1667845,2.8174484 1.1667845,2.4109302 Z m 0.2797866,2.4453489 c -0.1542803,0 -0.2797866,-0.1255081 -0.2797866,-0.2798107 0,-0.154281 0.1255063,-0.2798125 0.2797866,-0.2798125 h 8.4167753 c 0.3814166,0 0.6917036,0.3103125 0.6917036,0.6917531 v 2.0045137 c 0,0.3814426 -0.310311,0.6917531 -0.6917036,0.6917531 H 5.2642421 l 2.707e-4,-0.5596215 h 4.3189338 c 0.2272081,0 0.4120616,-0.1848549 0.4120616,-0.412038 V 5.268364 c 0,-0.2272083 -0.1848535,-0.4120379 -0.4120616,-0.4120379 H 1.4465711 Z m 0,2.2687518 H 3.3945949 L 3.394713,7.6846524 H 1.4465958 C 1.2923155,7.6846524 1.166808,7.5591209 1.166808,7.4048417 1.1667845,7.2505607 1.2922908,7.1250309 1.4465711,7.1250309 Z M 11.927301,11.432636 H 1.3312636 c -0.38100883,0 -0.69098477,-0.310312 -0.69098477,-0.691728 V 8.7363675 c 0,-0.3814406 0.30997594,-0.6917513 0.69098477,-0.6917513 h 2.0634999 l 1.172e-4,0.5596214 H 1.6119379 c -0.2272076,0 -0.4120371,0.1848532 -0.4120371,0.4120381 v 1.4446503 c 0,0.227211 0.1848531,0.412062 0.4120371,0.412062 H 11.927301 c 0.154281,0 0.279786,0.125533 0.279786,0.279813 0,0.154279 -0.125505,0.279835 -0.279786,0.279835 z"
       id="path9"
       style="fill:#4b756b;fill-opacity:1;stroke-width:0.0239976" />
  </g>
  <g
     inkscape:groupmode="layer"
     id="layer2"
     inkscape:label="color" />
</svg>
