<?xml version="1.0" encoding="UTF-8" standalone="no"?>
<!-- Created with Inkscape (http://www.inkscape.org/) -->

<svg
   width="48"
   height="48"
   viewBox="0 0 12.7 12.7"
   version="1.1"
   id="svg5"
   inkscape:version="1.1 (c4e8f9e, 2021-05-24)"
   sodipodi:docname="code.svg"
   xmlns:inkscape="http://www.inkscape.org/namespaces/inkscape"
   xmlns:sodipodi="http://sodipodi.sourceforge.net/DTD/sodipodi-0.dtd"
   xmlns="http://www.w3.org/2000/svg"
   xmlns:svg="http://www.w3.org/2000/svg">
  <sodipodi:namedview
     id="namedview7"
     pagecolor="#ffffff"
     bordercolor="#111111"
     borderopacity="1"
     inkscape:pageshadow="0"
     inkscape:pageopacity="0"
     inkscape:pagecheckerboard="1"
     inkscape:document-units="mm"
     showgrid="false"
     units="px"
     inkscape:zoom="6.6520416"
     inkscape:cx="31.64442"
     inkscape:cy="26.608373"
     inkscape:window-width="1920"
     inkscape:window-height="1039"
     inkscape:window-x="1920"
     inkscape:window-y="0"
     inkscape:window-maximized="1"
     inkscape:current-layer="layer1" />
  <defs
     id="defs2" />
  <g
     inkscape:label="Layer 1"
     inkscape:groupmode="layer"
     id="layer1">
    <g
       id="g889"
       transform="matrix(0.02417675,0,0,0.02382212,0.06985093,0.57878736)"
       style="fill:#2f6278;fill-opacity:1">
      <g
         id="g832"
         style="fill:#2f6278;fill-opacity:1">
	<g
   id="g830"
   style="fill:#2f6278;fill-opacity:1">
		<path
   d="m 325.762,70.513 -17.706,-4.854 c -2.279,-0.76 -4.524,-0.521 -6.707,0.715 -2.19,1.237 -3.669,3.094 -4.429,5.568 L 190.426,440.53 c -0.76,2.475 -0.522,4.809 0.715,6.995 1.237,2.19 3.09,3.665 5.568,4.425 l 17.701,4.856 c 2.284,0.766 4.521,0.526 6.71,-0.712 2.19,-1.243 3.666,-3.094 4.425,-5.564 L 332.042,81.936 c 0.759,-2.474 0.523,-4.808 -0.716,-6.999 -1.238,-2.19 -3.089,-3.665 -5.564,-4.424 z"
   id="path824"
   style="fill:#2f6278;fill-opacity:1" />

		<path
   d="m 166.167,142.465 c 0,-2.474 -0.953,-4.665 -2.856,-6.567 l -14.277,-14.276 c -1.903,-1.903 -4.093,-2.857 -6.567,-2.857 -2.474,0 -4.665,0.955 -6.567,2.857 L 2.856,254.666 C 0.95,256.569 0,258.759 0,261.233 c 0,2.474 0.953,4.664 2.856,6.566 l 133.043,133.044 c 1.902,1.906 4.089,2.854 6.567,2.854 2.478,0 4.665,-0.951 6.567,-2.854 l 14.277,-14.268 c 1.903,-1.902 2.856,-4.093 2.856,-6.57 0,-2.471 -0.953,-4.661 -2.856,-6.563 L 51.107,261.233 163.311,149.032 c 1.906,-1.902 2.856,-4.093 2.856,-6.567 z"
   id="path826"
   style="fill:#2f6278;fill-opacity:1" />

		<path
   d="M 519.614,254.663 386.567,121.619 c -1.902,-1.902 -4.093,-2.857 -6.563,-2.857 -2.478,0 -4.661,0.955 -6.57,2.857 l -14.271,14.275 c -1.902,1.903 -2.851,4.09 -2.851,6.567 0,2.477 0.948,4.665 2.851,6.567 l 112.206,112.204 -112.206,112.21 c -1.902,1.902 -2.851,4.093 -2.851,6.563 0,2.478 0.948,4.668 2.851,6.57 l 14.271,14.268 c 1.909,1.906 4.093,2.854 6.57,2.854 2.471,0 4.661,-0.951 6.563,-2.854 L 519.614,267.8 c 1.903,-1.902 2.854,-4.096 2.854,-6.57 0,-2.475 -0.951,-4.665 -2.854,-6.567 z"
   id="path828"
   style="fill:#2f6278;fill-opacity:1" />

	</g>

</g>
      <g
         id="g834"
         style="fill:#2f6278;fill-opacity:1">
</g>
      <g
         id="g836"
         style="fill:#2f6278;fill-opacity:1">
</g>
      <g
         id="g838"
         style="fill:#2f6278;fill-opacity:1">
</g>
      <g
         id="g840"
         style="fill:#2f6278;fill-opacity:1">
</g>
      <g
         id="g842"
         style="fill:#2f6278;fill-opacity:1">
</g>
      <g
         id="g844"
         style="fill:#2f6278;fill-opacity:1">
</g>
      <g
         id="g846"
         style="fill:#2f6278;fill-opacity:1">
</g>
      <g
         id="g848"
         style="fill:#2f6278;fill-opacity:1">
</g>
      <g
         id="g850"
         style="fill:#2f6278;fill-opacity:1">
</g>
      <g
         id="g852"
         style="fill:#2f6278;fill-opacity:1">
</g>
      <g
         id="g854"
         style="fill:#2f6278;fill-opacity:1">
</g>
      <g
         id="g856"
         style="fill:#2f6278;fill-opacity:1">
</g>
      <g
         id="g858"
         style="fill:#2f6278;fill-opacity:1">
</g>
      <g
         id="g860"
         style="fill:#2f6278;fill-opacity:1">
</g>
      <g
         id="g862"
         style="fill:#2f6278;fill-opacity:1">
</g>
    </g>
  </g>
</svg>
