<?xml version="1.0" encoding="UTF-8" standalone="no"?>
<!-- Created with Inkscape (http://www.inkscape.org/) -->

<svg
   width="48"
   height="48"
   viewBox="0 0 12.7 12.7"
   version="1.1"
   id="svg5"
   inkscape:version="1.1 (c4e8f9e, 2021-05-24)"
   sodipodi:docname="screen.svg"
   xmlns:inkscape="http://www.inkscape.org/namespaces/inkscape"
   xmlns:sodipodi="http://sodipodi.sourceforge.net/DTD/sodipodi-0.dtd"
   xmlns="http://www.w3.org/2000/svg"
   xmlns:svg="http://www.w3.org/2000/svg">
  <sodipodi:namedview
     id="namedview7"
     pagecolor="#ffffff"
     bordercolor="#111111"
     borderopacity="1"
     inkscape:pageshadow="0"
     inkscape:pageopacity="0"
     inkscape:pagecheckerboard="1"
     inkscape:document-units="mm"
     showgrid="false"
     units="px"
     inkscape:zoom="9.4074074"
     inkscape:cx="23.545276"
     inkscape:cy="27.956693"
     inkscape:window-width="1920"
     inkscape:window-height="1039"
     inkscape:window-x="1920"
     inkscape:window-y="0"
     inkscape:window-maximized="1"
     inkscape:current-layer="layer1" />
  <defs
     id="defs2" />
  <g
     inkscape:label="Layer 1"
     inkscape:groupmode="layer"
     id="layer1">
    <g
       id="g828"
       transform="matrix(0.0253369,0,0,0.0253369,-0.13968124,-0.08229303)"
       style="fill:#f55f79;fill-opacity:1">
      <path
         d="M 476,48 H 36 A 28.031,28.031 0 0 0 8,76 v 296 a 28.031,28.031 0 0 0 28,28 h 162.24 l -4.8,24 H 160 a 8,8 0 0 0 -8,8 v 24 a 8,8 0 0 0 8,8 h 192 a 8,8 0 0 0 8,-8 v -24 a 8,8 0 0 0 -8,-8 h -33.44 l -4.8,-24 H 476 a 28.031,28.031 0 0 0 28,-28 V 76 A 28.031,28.031 0 0 0 476,48 Z M 344,440 v 8 H 168 v -8 z m -134.24,-16 4.8,-24 h 82.88 l 4.8,24 z M 488,372 a 12.01,12.01 0 0 1 -12,12 H 36 A 12.01,12.01 0 0 1 24,372 v -20 h 464 z m 0,-36 H 24 V 76 A 12.01,12.01 0 0 1 36,64 h 440 a 12.01,12.01 0 0 1 12,12 z"
         id="path824"
         style="fill:#f55f79;fill-opacity:1" />
      <path
         d="m 264,360 h -16 a 8,8 0 0 0 0,16 h 16 a 8,8 0 0 0 0,-16 z"
         id="path826"
         style="fill:#f55f79;fill-opacity:1" />
    </g>
  </g>
</svg>
